<mxfile host="app.diagrams.net" agent="Mozilla/5.0 (Macintosh; Intel Mac OS X 10_15_7) AppleWebKit/537.36 (KHTML, like Gecko) Chrome/138.0.0.0 Safari/537.36" version="27.2.0">
  <diagram name="第 1 页" id="TBruVFr-u36KiFqJf4Vp">
    <mxGraphModel dx="1240" dy="639" grid="1" gridSize="10" guides="1" tooltips="1" connect="1" arrows="1" fold="1" page="1" pageScale="1" pageWidth="827" pageHeight="1169" math="0" shadow="0">
      <root>
        <mxCell id="0" />
        <mxCell id="1" parent="0" />
        <mxCell id="gwG34qnaKFS2RJj8cQNM-1" value="&lt;font style=&quot;font-size: 18px;&quot;&gt;Linux 内核&lt;/font&gt;" style="rounded=0;whiteSpace=wrap;html=1;" vertex="1" parent="1">
          <mxGeometry x="120" y="490" width="490" height="60" as="geometry" />
        </mxCell>
        <mxCell id="gwG34qnaKFS2RJj8cQNM-2" value="&lt;span&gt;&lt;font style=&quot;font-size: 18px;&quot;&gt;&lt;font style=&quot;color: light-dark(rgb(0, 0, 0), rgb(255, 255, 255));&quot;&gt;Android&lt;/font&gt;&lt;font style=&quot;color: light-dark(rgb(248, 250, 255), rgb(255, 255, 255));&quot;&gt;&amp;nbsp;&lt;/font&gt;&lt;span style=&quot;font-weight: 600; font-family: quote-cjk-patch, Inter, system-ui, -apple-system, &amp;quot;system-ui&amp;quot;, &amp;quot;Segoe UI&amp;quot;, Roboto, &amp;quot;Noto Sans&amp;quot;, Ubuntu, Cantarell, &amp;quot;Helvetica Neue&amp;quot;, Oxygen, &amp;quot;Open Sans&amp;quot;, sans-serif; text-align: start; background-color: light-dark(rgb(41, 42, 45), transparent); color: rgb(248, 250, 255);&quot;&gt;&lt;font style=&quot;color: light-dark(rgb(248, 250, 255), rgb(255, 255, 255));&quot;&gt;AOSP（Android Open Source Project）&lt;/font&gt;&lt;/span&gt;&lt;/font&gt;&lt;/span&gt;" style="rounded=0;whiteSpace=wrap;html=1;" vertex="1" parent="1">
          <mxGeometry x="120" y="420" width="490" height="60" as="geometry" />
        </mxCell>
        <mxCell id="gwG34qnaKFS2RJj8cQNM-3" value="&lt;font style=&quot;font-size: 18px;&quot;&gt;厂商定制系统&lt;/font&gt;" style="rounded=0;whiteSpace=wrap;html=1;" vertex="1" parent="1">
          <mxGeometry x="120" y="350" width="490" height="60" as="geometry" />
        </mxCell>
      </root>
    </mxGraphModel>
  </diagram>
</mxfile>
